<svg width="500" height="500" viewBox="0 0 500 500" fill="none" xmlns="http://www.w3.org/2000/svg">
<path d="M239.636 483.553C371.983 483.553 479.271 375.306 479.271 241.777C479.271 108.247 371.983 0 239.636 0C107.289 0 0 108.247 0 241.777C0 375.306 107.289 483.553 239.636 483.553Z" fill="#FFFAA9"/>
<path d="M260.29 499.952C392.637 499.952 499.926 391.705 499.926 258.175C499.926 124.646 392.637 16.3984 260.29 16.3984C127.943 16.3984 20.6543 124.646 20.6543 258.175C20.6543 391.705 127.943 499.952 260.29 499.952Z" fill="#FEE961"/>
<path d="M260.29 453.935C367.45 453.935 454.32 366.289 454.32 258.172C454.32 150.055 367.45 62.4082 260.29 62.4082C153.13 62.4082 66.2598 150.055 66.2598 258.172C66.2598 366.289 153.13 453.935 260.29 453.935Z" fill="#B88F00"/>
<path d="M147.608 161.514L199.663 154.539L292.525 269.155L276.119 144.285L328.793 137.258L356.393 347.023L304.648 353.946L211.425 239.07L227.882 364.2L175.209 371.227L147.608 161.514Z" fill="#FFFAA9"/>
<path d="M147.727 161.62L199.781 154.645L292.643 269.261L276.237 144.391L328.911 137.364L356.511 347.13L304.767 354.052L211.543 239.176L228.001 364.306L175.327 371.333L147.727 161.62Z" fill="#FFFAA8"/>
<path d="M147.871 161.781L199.925 154.806L292.788 269.423L276.382 144.552L329.055 137.525L356.656 347.291L304.911 354.213L211.688 239.337L228.145 364.468L175.472 371.494L147.871 161.781Z" fill="#FFFAA7"/>
<path d="M147.945 161.888L200 154.913L292.862 269.529L276.456 144.659L329.13 137.632L356.73 347.397L304.985 354.32L211.762 239.443L228.219 364.574L175.546 371.653L147.945 161.888Z" fill="#FFF9A6"/>
<path d="M148.093 161.984L200.147 155.009L293.009 269.626L276.604 144.755L329.277 137.729L356.878 347.494L305.133 354.417L211.91 239.54L228.367 364.671L175.693 371.698L148.093 161.984Z" fill="#FFF9A5"/>
<path d="M148.189 162.141L200.244 155.167L293.106 269.783L276.7 144.913L329.374 137.886L356.974 347.651L305.23 354.574L212.006 239.697L228.464 364.828L175.79 371.855L148.189 162.141Z" fill="#FFF9A4"/>
<path d="M148.262 162.246L200.316 155.271L293.178 269.887L276.772 145.017L329.446 137.99L357.047 347.756L305.302 354.678L212.079 239.802L228.536 364.932L175.862 371.959L148.262 162.246Z" fill="#FFF9A3"/>
<path d="M148.384 162.404L200.438 155.429L293.3 270.046L276.895 145.175L329.568 138.148L357.169 347.914L305.424 354.837L212.201 239.96L228.658 365.091L175.984 372.117L148.384 162.404Z" fill="#FFF8A2"/>
<path d="M148.531 162.508L200.586 155.533L293.448 270.149L277.042 145.279L329.716 138.252L357.316 348.017L305.571 354.94L212.348 240.064L228.805 365.194L176.132 372.221L148.531 162.508Z" fill="#FFF8A1"/>
<path d="M148.628 162.612L200.682 155.637L293.544 270.254L277.139 145.383L329.812 138.356L357.413 348.122L305.668 355.045L212.445 240.168L228.902 365.299L176.229 372.326L148.628 162.612Z" fill="#FFF8A0"/>
<path d="M148.726 162.769L200.78 155.795L293.642 270.411L277.236 145.541L329.91 138.514L357.511 348.279L305.766 355.202L212.542 240.325L229 365.456L176.326 372.483L148.726 162.769Z" fill="#FFF89F"/>
<path d="M148.848 162.872L200.902 155.897L293.764 270.513L277.358 145.643L330.032 138.616L357.632 348.382L305.888 355.304L212.613 240.428L229.07 365.558L176.397 372.585L148.848 162.872Z" fill="#FFF79E"/>
<path d="M148.947 162.978L201.002 156.004L293.864 270.62L277.458 145.75L330.132 138.723L357.732 348.488L305.987 355.411L212.764 240.534L229.221 365.665L176.548 372.692L148.947 162.978Z" fill="#FFF79D"/>
<path d="M149.044 163.134L201.098 156.159L293.96 270.775L277.555 145.905L330.228 138.878L357.829 348.643L306.084 355.566L212.861 240.69L229.318 365.82L176.645 372.847L149.044 163.134Z" fill="#FFF79C"/>
<path d="M149.142 163.238L201.196 156.263L294.058 270.88L277.652 146.009L330.326 138.982L357.927 348.748L306.182 355.671L212.958 240.794L229.416 365.925L176.742 372.952L149.142 163.238Z" fill="#FFF79B"/>
<path d="M149.288 163.342L201.342 156.367L294.204 270.983L277.799 146.113L330.472 139.086L358.073 348.851L306.328 355.774L213.053 240.95L229.511 366.08L176.837 373.107L149.288 163.342Z" fill="#FFF79A"/>
<path d="M149.386 163.5L201.44 156.525L294.302 271.141L277.897 146.271L330.57 139.244L358.171 349.009L306.426 355.932L213.203 241.056L229.66 366.186L176.986 373.213L149.386 163.5Z" fill="#FFF699"/>
<path d="M149.482 163.606L201.537 156.631L294.399 271.248L277.993 146.377L330.667 139.351L358.267 349.116L306.523 356.039L213.299 241.162L229.757 366.293L177.083 373.32L149.482 163.606Z" fill="#FFF698"/>
<path d="M149.604 163.711L201.659 156.736L294.521 271.352L278.115 146.482L330.789 139.455L358.389 349.22L306.645 356.143L213.421 241.267L229.879 366.397L177.205 373.424L149.604 163.711Z" fill="#FFF697"/>
<path d="M149.702 163.855L201.757 156.881L294.619 271.497L278.213 146.626L330.886 139.6L358.487 349.365L306.742 356.288L213.519 241.411L229.976 366.542L177.303 373.569L149.702 163.855Z" fill="#FFF696"/>
<path d="M149.802 163.971L201.856 156.996L294.718 271.612L278.313 146.742L330.986 139.715L358.587 349.48L306.842 356.403L213.619 241.526L230.076 366.657L177.402 373.684L149.802 163.971Z" fill="#FFF595"/>
<path d="M149.971 164.064L202.025 157.09L294.887 271.706L278.482 146.835L331.155 139.809L358.756 349.574L307.011 356.497L213.736 241.672L230.193 366.803L177.52 373.83L149.971 164.064Z" fill="#FFF594"/>
<path d="M150.068 164.217L202.123 157.242L294.985 271.858L278.579 146.988L331.253 139.961L358.853 349.726L307.108 356.649L213.885 241.773L230.342 366.903L177.669 373.93L150.068 164.217Z" fill="#FFF593"/>
<path d="M150.168 164.324L202.222 157.349L295.084 271.965L278.679 147.095L331.352 140.068L358.953 349.834L307.208 356.757L213.985 241.88L230.442 367.011L177.769 374.037L150.168 164.324Z" fill="#FFF592"/>
<path d="M150.29 164.481L202.344 157.506L295.206 272.123L278.801 147.252L331.474 140.226L359.075 349.991L307.33 356.914L214.107 242.037L230.564 367.168L177.891 374.195L150.29 164.481Z" fill="#FFF491"/>
<path d="M150.387 164.583L202.441 157.608L295.303 272.224L278.898 147.354L331.571 140.327L359.172 350.092L307.427 357.015L214.204 242.139L230.661 367.269L177.987 374.296L150.387 164.583Z" fill="#FFF490"/>
<path d="M150.509 164.687L202.563 157.713L295.425 272.329L279.02 147.459L331.693 140.432L359.294 350.197L307.549 357.12L214.326 242.243L230.783 367.374L178.109 374.401L150.509 164.687Z" fill="#FFF48F"/>
<path d="M150.581 164.843L202.635 157.868L295.497 272.484L279.092 147.614L331.765 140.587L359.366 350.352L307.621 357.275L214.398 242.399L230.855 367.529L178.182 374.556L150.581 164.843Z" fill="#FFF48E"/>
<path d="M150.729 164.949L202.783 157.974L295.645 272.59L279.239 147.72L331.913 140.693L359.513 350.459L307.769 357.381L214.545 242.505L231.003 367.635L178.329 374.714L150.729 164.949Z" fill="#FFF38D"/>
<path d="M150.825 165.054L202.88 158.079L295.742 272.695L279.336 147.825L332.009 140.798L359.61 350.563L307.865 357.486L214.642 242.609L231.099 367.74L178.426 374.767L150.825 165.054Z" fill="#FFF38C"/>
<path d="M150.947 165.211L203.002 158.236L295.864 272.852L279.458 147.982L332.132 140.955L359.732 350.72L307.987 357.643L214.764 242.767L231.221 367.897L178.548 374.924L150.947 165.211Z" fill="#FFF38B"/>
<path d="M151.045 165.313L203.099 158.339L295.961 272.955L279.556 148.084L332.229 141.058L359.83 350.823L308.085 357.746L214.862 242.869L231.319 368L178.646 375.027L151.045 165.313Z" fill="#FFF38A"/>
<path d="M151.145 165.417L203.199 158.442L296.061 273.058L279.655 148.188L332.329 141.161L359.929 350.926L308.185 357.849L214.961 243.025L231.419 368.155L178.745 375.182L151.145 165.417Z" fill="#FFF389"/>
<path d="M151.267 165.575L203.321 158.6L296.183 273.216L279.777 148.346L332.451 141.319L360.052 351.085L308.307 358.007L215.084 243.131L231.541 368.261L178.867 375.288L151.267 165.575Z" fill="#FFF288"/>
<path d="M151.363 165.677L203.418 158.702L296.28 273.318L279.874 148.448L332.548 141.421L360.148 351.186L308.403 358.109L215.18 243.233L231.637 368.363L178.964 375.39L151.363 165.677Z" fill="#FFF287"/>
<path d="M151.511 165.786L203.565 158.811L296.427 273.427L280.022 148.557L332.695 141.53L360.296 351.296L308.551 358.218L215.276 243.394L231.733 368.524L179.06 375.551L151.511 165.786Z" fill="#FFF286"/>
<path d="M151.607 165.936L203.662 158.962L296.524 273.578L280.118 148.708L332.792 141.681L360.392 351.446L308.648 358.369L215.424 243.492L231.882 368.623L179.208 375.65L151.607 165.936Z" fill="#FFF285"/>
<path d="M151.729 166.043L203.784 159.068L296.646 273.684L280.24 148.814L332.914 141.787L360.514 351.552L308.77 358.475L215.546 243.599L232.004 368.729L179.33 375.756L151.729 166.043Z" fill="#FEF185"/>
<path d="M151.827 166.201L203.882 159.226L296.744 273.842L280.338 148.972L333.011 141.945L360.612 351.711L308.867 358.633L215.644 243.757L232.101 368.887L179.428 375.914L151.827 166.201Z" fill="#FEF184"/>
<path d="M151.924 166.303L203.978 159.328L296.84 273.944L280.435 149.074L333.108 142.047L360.709 351.812L308.964 358.735L215.741 243.859L232.198 368.989L179.525 376.016L151.924 166.303Z" fill="#FEF183"/>
<path d="M152.021 166.409L204.076 159.434L296.938 274.05L280.532 149.18L333.206 142.153L360.806 351.919L309.062 358.841L215.838 243.965L232.296 369.148L179.622 376.174L152.021 166.409Z" fill="#FEF182"/>
<path d="M152.121 166.561L204.175 159.587L297.038 274.203L280.632 149.333L333.305 142.306L360.906 352.071L309.161 358.994L215.938 244.117L232.395 369.248L179.722 376.275L152.121 166.561Z" fill="#FEF081"/>
<path d="M152.29 166.664L204.344 159.689L297.206 274.305L280.801 149.435L333.474 142.408L361.075 352.174L309.279 359.096L216.055 244.22L232.513 369.35L179.839 376.377L152.29 166.664Z" fill="#FEF080"/>
<path d="M152.388 166.77L204.442 159.796L297.304 274.412L280.899 149.542L333.572 142.515L361.173 352.28L309.428 359.203L216.205 244.326L232.61 369.509L179.937 376.536L152.388 166.77Z" fill="#FEF07F"/>
<path d="M152.487 166.928L204.542 159.953L297.404 274.569L280.998 149.699L333.672 142.672L361.272 352.437L309.527 359.36L216.304 244.484L232.761 369.614L180.088 376.641L152.487 166.928Z" fill="#FEF07E"/>
<path d="M152.584 167.027L204.638 160.052L297.5 274.669L281.095 149.798L333.768 142.771L361.369 352.537L309.624 359.46L216.401 244.583L232.858 369.714L180.185 376.793L152.584 167.027Z" fill="#FEF07D"/>
<path d="M152.706 167.134L204.76 160.159L297.622 274.775L281.217 149.905L333.89 142.878L361.491 352.643L309.695 359.618L216.471 244.742L232.929 369.872L180.255 376.899L152.706 167.134Z" fill="#FEEF7C"/>
<path d="M152.804 167.294L204.858 160.319L297.72 274.935L281.315 150.065L333.988 143.038L361.589 352.803L309.844 359.726L216.621 244.85L233.078 369.98L180.404 377.007L152.804 167.294Z" fill="#FEEF7B"/>
<path d="M152.9 167.395L204.955 160.421L297.817 275.037L281.411 150.167L334.085 143.14L361.685 352.905L309.94 359.828L216.717 244.951L233.174 370.082L180.501 377.109L152.9 167.395Z" fill="#FEEF7A"/>
<path d="M153.072 167.5L205.127 160.525L297.989 275.141L281.583 150.271L334.257 143.244L361.857 353.009L310.112 359.932L216.838 245.108L233.295 370.238L180.621 377.265L153.072 167.5Z" fill="#FEEF79"/>
<path d="M153.17 167.652L205.224 160.677L298.086 275.294L281.681 150.423L334.354 143.396L361.955 353.162L310.21 360.085L216.987 245.208L233.444 370.339L180.771 377.365L153.17 167.652Z" fill="#FEEE78"/>
<path d="M153.267 167.76L205.321 160.785L298.183 275.401L281.777 150.531L334.451 143.504L362.052 353.269L310.307 360.192L217.084 245.316L233.541 370.446L180.867 377.473L153.267 167.76Z" fill="#FEEE77"/>
<path d="M153.364 167.92L205.419 160.945L298.281 275.561L281.875 150.691L334.549 143.664L362.149 353.429L310.404 360.352L217.181 245.476L233.638 370.606L180.965 377.633L153.364 167.92Z" fill="#FEEE76"/>
<path d="M153.464 168.018L205.518 161.044L298.38 275.66L281.975 150.79L334.648 143.763L362.249 353.528L310.504 360.451L217.281 245.574L233.738 370.705L181.065 377.732L153.464 168.018Z" fill="#FEEE75"/>
<path d="M153.562 168.121L205.616 161.146L298.478 275.762L282.072 150.892L334.746 143.865L362.346 353.631L310.602 360.553L217.378 245.677L233.836 370.807L181.162 377.834L153.562 168.121Z" fill="#FEED74"/>
<path d="M153.73 168.278L205.785 161.303L298.647 275.92L282.241 151.049L334.915 144.022L362.515 353.788L310.771 360.711L217.547 245.834L234.005 370.965L181.331 377.991L153.73 168.278Z" fill="#FEED73"/>
<path d="M153.853 168.385L205.907 161.41L298.769 276.026L282.363 151.156L335.037 144.129L362.637 353.894L310.893 360.817L217.669 245.941L234.127 371.071L181.453 378.098L153.853 168.385Z" fill="#FEED72"/>
<path d="M153.952 168.487L206.006 161.512L298.869 276.129L282.463 151.258L335.136 144.231L362.737 353.997L310.992 360.92L217.769 246.043L234.226 371.174L181.553 378.2L153.952 168.487Z" fill="#FEED71"/>
<path d="M154.049 168.644L206.103 161.67L298.965 276.286L282.56 151.416L335.233 144.389L362.834 354.154L311.089 361.077L217.866 246.2L234.323 371.331L181.649 378.358L154.049 168.644Z" fill="#FEEC70"/>
<path d="M154.146 168.746L206.201 161.771L299.063 276.387L282.657 151.517L335.331 144.49L362.931 354.256L311.187 361.178L217.963 246.302L234.421 371.432L181.747 378.459L154.146 168.746Z" fill="#FEEC6F"/>
<path d="M154.243 168.853L206.298 161.879L299.16 276.495L282.754 151.625L335.427 144.598L363.028 354.363L311.283 361.286L218.06 246.409L234.517 371.54L181.844 378.567L154.243 168.853Z" fill="#FEEC6E"/>
<path d="M154.341 169.011L206.395 162.036L299.257 276.652L282.852 151.782L335.525 144.755L363.126 354.52L311.381 361.443L218.158 246.567L234.615 371.697L181.942 378.724L154.341 169.011Z" fill="#FEEC6D"/>
<path d="M154.513 169.112L206.567 162.137L299.429 276.754L283.023 151.883L335.697 144.856L363.298 354.622L311.553 361.545L218.33 246.668L234.787 371.799L182.113 378.825L154.513 169.112Z" fill="#FEEC6C"/>
<path d="M154.635 169.22L206.689 162.245L299.551 276.861L283.146 151.991L335.819 144.964L363.42 354.729L311.675 361.652L218.4 246.828L234.857 371.958L182.184 378.985L154.635 169.22Z" fill="#FEEB6B"/>
<path d="M154.731 169.372L206.786 162.397L299.648 277.013L283.242 152.143L335.916 145.116L363.516 354.882L311.772 361.804L218.548 246.928L235.006 372.058L182.332 379.085L154.731 169.372Z" fill="#FEEB6A"/>
<path d="M154.829 169.478L206.884 162.504L299.746 277.12L283.34 152.25L336.013 145.223L363.614 354.988L311.869 361.911L218.646 247.034L235.103 372.165L182.43 379.192L154.829 169.478Z" fill="#FEEB69"/>
<path d="M154.929 169.631L206.983 162.656L299.845 277.272L283.44 152.402L336.113 145.375L363.714 355.14L311.969 362.063L218.746 247.187L235.203 372.317L182.529 379.344L154.929 169.631Z" fill="#FEEB68"/>
<path d="M155.026 169.738L207.081 162.763L299.943 277.38L283.537 152.509L336.211 145.482L363.811 355.248L312.066 362.171L218.843 247.294L235.3 372.425L182.627 379.452L155.026 169.738Z" fill="#FEEA67"/>
<path d="M155.123 169.843L207.177 162.868L300.039 277.484L283.634 152.614L336.307 145.587L363.908 355.352L312.163 362.275L218.94 247.399L235.397 372.529L182.724 379.556L155.123 169.843Z" fill="#FEEA66"/>
<path d="M155.295 169.997L207.349 163.022L300.211 277.638L283.806 152.768L336.479 145.741L364.08 355.507L312.335 362.429L219.112 247.553L235.569 372.683L182.896 379.71L155.295 169.997Z" fill="#FEEA65"/>
<path d="M155.393 170.104L207.447 163.13L300.309 277.746L283.903 152.876L336.577 145.849L364.178 355.614L312.433 362.537L219.21 247.66L235.667 372.791L182.993 379.818L155.393 170.104Z" fill="#FEEA64"/>
<path d="M155.489 170.203L207.544 163.228L300.406 277.844L284 152.974L336.673 145.947L364.274 355.713L312.529 362.635L219.306 247.759L235.763 372.889L183.09 379.916L155.489 170.203Z" fill="#FEE963"/>
<path d="M155.611 170.363L207.666 163.388L300.528 278.004L284.122 153.134L336.796 146.107L364.396 355.873L312.651 362.795L219.428 247.919L235.885 373.049L183.212 380.076L155.611 170.363Z" fill="#FEE962"/>
<path d="M155.708 170.463L207.762 163.488L300.625 278.104L284.219 153.234L336.892 146.207L364.493 355.972L312.748 362.895L219.525 248.019L235.982 373.149L183.309 380.176L155.708 170.463Z" fill="#FEE961"/>
<path opacity="0.54" d="M228.749 18.4778C210.486 20.9242 192.997 25.4527 176.437 31.6988C176.437 31.6988 193.41 31.1783 214.407 49.9166C333.632 155.996 195.886 361.754 36.9375 345.774C75.9912 447.378 179.997 512.858 291.844 497.867C423.037 480.274 515.28 358.735 497.895 226.369C480.406 94.0038 359.943 0.936681 228.749 18.4778Z" fill="#ECB500"/>
<path d="M362.639 91.873C404.272 122.271 433.988 169.169 441.263 224.655C455.347 331.828 380.696 430.256 274.472 444.466C228.144 450.66 183.467 439.834 146.632 416.723C185.428 445.039 234.644 459.092 285.873 452.222C392.097 438.012 466.748 339.583 452.664 232.411C444.667 172.031 410.205 121.698 362.639 91.873Z" fill="#FFFAA9"/>
</svg>
